# xmcd CD database file
#
# Track frame offsets:
#	151
#	20987
#	33142
#	44881
#	57110
#	71782
#	83723
#	93421
#	109024
#	121046
#	138049
#	151833
#
# Disc length: 2244 seconds
#
# Revision: 0
# Processed by: cddbd v1.5.2PL0 Copyright (c) Steve Scherf et al.
# Submitted via: CDex 1.70beta2
#
DISCID=9808c20c
DTITLE=Exitmambo - Exitmambo
DYEAR=1900
DGENRE=Jazz
TTITLE0=Odar (Pastor)
TTITLE1=All Blues (M.Davis)
TTITLE2=Beautiful Love (V.Young)
TTITLE3=Barrio Pésimo (Pastor)
TTITLE4=Nayma (j.Coltrane)
TTITLE5=Blue Bossa (K.Dorham)
TTITLE6=St.Thomas (S.Rollins)
TTITLE7=Englishman in N.Y. (Sting)
TTITLE8=Funky en mi (Exitmambo)
TTITLE9=Caravan (D.Ellington)
TTITLE10=Cantaloop (H.Hancock)
TTITLE11=Insensatez (A.C.Jobim)
EXTD=
EXTT0=
EXTT1=
EXTT2=
EXTT3=
EXTT4=
EXTT5=
EXTT6=
EXTT7=
EXTT8=
EXTT9=
EXTT10=
EXTT11=
PLAYORDER=
